	<svg xmlns="http://www.w3.org/2000/svg" viewBox="0 0 1440 240"
		><path
			fill="#21409A"
			fill-opacity="1"
			d="M0,192L34.3,197.3C68.6,203,137,213,206,213.3C274.3,213,343,203,411,186.7C480,171,549,149,617,149.3C685.7,149,754,171,823,186.7C891.4,203,960,213,1029,197.3C1097.1,181,1166,139,1234,138.7C1302.9,139,1371,181,1406,202.7L1440,224L1440,320L1405.7,320C1371.4,320,1303,320,1234,320C1165.7,320,1097,320,1029,320C960,320,891,320,823,320C754.3,320,686,320,617,320C548.6,320,480,320,411,320C342.9,320,274,320,206,320C137.1,320,69,320,34,320L0,320Z"
		></path>
	</svg>