<svg id="visual" viewBox="0 0 960 128" width="960" height="128" xmlns="http://www.w3.org/2000/svg" xmlns:xlink="http://www.w3.org/1999/xlink" version="1.1"><path d="M0 110L40 110.2C80 110.3 160 110.7 240 110.7C320 110.7 400 110.3 480 110.5C560 110.7 640 111.3 720 111.3C800 111.3 880 110.7 920 110.3L960 110L960 129L920 129C880 129 800 129 720 129C640 129 560 129 480 129C400 129 320 129 240 129C160 129 80 129 40 129L0 129Z" fill="#ffae7a"></path><path d="M0 120L40 119.7C80 119.3 160 118.7 240 118.5C320 118.3 400 118.7 480 118.8C560 119 640 119 720 118.8C800 118.7 880 118.3 920 118.2L960 118L960 129L920 129C880 129 800 129 720 129C640 129 560 129 480 129C400 129 320 129 240 129C160 129 80 129 40 129L0 129Z" fill="#c1622b"></path></svg>